<svg xmlns="http://www.w3.org/2000/svg" xmlns:svg="http://www.w3.org/2000/svg" xmlns:xlink="http://www.w3.org/1999/xlink" id="svg8" width="755.231" height="343.019" version="1.1" viewBox="0 0 199.821 90.757"><defs id="defs2"><marker id="marker4776" orient="auto" refX="0" refY="0" style="overflow:visible"><path id="path4774" d="M 0.0,5.65 L 0.0,-5.65" transform="scale(0.4)" style="fill:none;fill-opacity:.75;fill-rule:evenodd;stroke:#000;stroke-width:1pt;stroke-opacity:1"/></marker><marker style="overflow:visible" id="marker8529" orient="auto" refX="0" refY="0"><path style="fill:none;fill-opacity:.75;fill-rule:evenodd;stroke:#000;stroke-width:1pt;stroke-opacity:1" id="path8527" d="M 0.0,5.65 L 0.0,-5.65" transform="scale(0.4)"/></marker><marker id="marker8360" orient="auto" refX="0" refY="0" style="overflow:visible"><path id="path8358" d="M 0.0,5.65 L 0.0,-5.65" transform="scale(0.4)" style="fill:none;fill-opacity:.75;fill-rule:evenodd;stroke:#000;stroke-width:1pt;stroke-opacity:1"/></marker><marker style="overflow:visible" id="marker8197" orient="auto" refX="0" refY="0"><path style="fill:none;fill-opacity:.75;fill-rule:evenodd;stroke:#000;stroke-width:1pt;stroke-opacity:1" id="path8195" d="M 0.0,5.65 L 0.0,-5.65" transform="scale(0.4)"/></marker><marker id="StopS" orient="auto" refX="0" refY="0" style="overflow:visible"><path id="path7625" d="M 0.0,5.65 L 0.0,-5.65" transform="scale(0.2)" style="fill:none;fill-opacity:.75;fill-rule:evenodd;stroke:#000;stroke-width:1pt;stroke-opacity:1"/></marker><marker id="StopM" orient="auto" refX="0" refY="0" style="overflow:visible"><path id="path7622" d="M 0.0,5.65 L 0.0,-5.65" transform="scale(0.4)" style="fill:none;fill-opacity:.75;fill-rule:evenodd;stroke:#000;stroke-width:1pt;stroke-opacity:1"/></marker><marker style="overflow:visible" id="InfiniteLineEnd" orient="auto" refX="0" refY="0"><g id="g7691" style="fill:#000;stroke:#000;stroke-opacity:1;fill-opacity:1"><circle id="circle7685" cx="3" cy="0" r=".8" style="stroke:#000;stroke-opacity:1;fill:#000;fill-opacity:1"/><circle id="circle7687" cx="6.5" cy="0" r=".8" style="stroke:#000;stroke-opacity:1;fill:#000;fill-opacity:1"/><circle id="circle7689" cx="10" cy="0" r=".8" style="stroke:#000;stroke-opacity:1;fill:#000;fill-opacity:1"/></g></marker><marker style="overflow:visible" id="marker6863" orient="auto" refX="0" refY="0"><path style="fill:#000;fill-opacity:1;fill-rule:evenodd;stroke:#000;stroke-width:1.00000003pt;stroke-opacity:1" id="path6861" d="M 0,0 5,-5 -12.5,0 5,5 Z" transform="matrix(-0.4,0,0,-0.4,-4,0)"/></marker><marker id="Arrow1Mend" orient="auto" refX="0" refY="0" style="overflow:visible"><path id="path4528" d="M 0,0 5,-5 -12.5,0 5,5 Z" transform="matrix(-0.4,0,0,-0.4,-4,0)" style="fill:#000;fill-opacity:1;fill-rule:evenodd;stroke:#000;stroke-width:1.00000003pt;stroke-opacity:1"/></marker><marker id="Arrow1Mend-3" orient="auto" refX="0" refY="0" style="overflow:visible"><path id="path4528-6" d="M 0,0 5,-5 -12.5,0 5,5 Z" transform="matrix(-0.4,0,0,-0.4,-4,0)" style="fill:#000;fill-opacity:1;fill-rule:evenodd;stroke:#000;stroke-width:1.00000003pt;stroke-opacity:1"/></marker><marker style="overflow:visible" id="marker6863-5" orient="auto" refX="0" refY="0"><path style="fill:#000;fill-opacity:1;fill-rule:evenodd;stroke:#000;stroke-width:1.00000003pt;stroke-opacity:1" id="path6861-3" d="M 0,0 5,-5 -12.5,0 5,5 Z" transform="matrix(-0.4,0,0,-0.4,-4,0)"/></marker><marker style="overflow:visible" id="marker6863-6" orient="auto" refX="0" refY="0"><path style="fill:#000;fill-opacity:1;fill-rule:evenodd;stroke:#000;stroke-width:1.00000003pt;stroke-opacity:1" id="path6861-2" d="M 0,0 5,-5 -12.5,0 5,5 Z" transform="matrix(-0.4,0,0,-0.4,-4,0)"/></marker><marker style="overflow:visible" id="marker6863-1" orient="auto" refX="0" refY="0"><path style="fill:#000;fill-opacity:1;fill-rule:evenodd;stroke:#000;stroke-width:1.00000003pt;stroke-opacity:1" id="path6861-27" d="M 0,0 5,-5 -12.5,0 5,5 Z" transform="matrix(-0.4,0,0,-0.4,-4,0)"/></marker><marker style="overflow:visible" id="marker6863-1-0" orient="auto" refX="0" refY="0"><path style="fill:#000;fill-opacity:1;fill-rule:evenodd;stroke:#000;stroke-width:1.00000003pt;stroke-opacity:1" id="path6861-27-2" d="M 0,0 5,-5 -12.5,0 5,5 Z" transform="matrix(-0.4,0,0,-0.4,-4,0)"/></marker><marker style="overflow:visible" id="marker6863-6-3" orient="auto" refX="0" refY="0"><path style="fill:#000;fill-opacity:1;fill-rule:evenodd;stroke:#000;stroke-width:1.00000003pt;stroke-opacity:1" id="path6861-2-7" d="M 0,0 5,-5 -12.5,0 5,5 Z" transform="matrix(-0.4,0,0,-0.4,-4,0)"/></marker><marker style="overflow:visible" id="marker6863-5-5" orient="auto" refX="0" refY="0"><path style="fill:#000;fill-opacity:1;fill-rule:evenodd;stroke:#000;stroke-width:1.00000003pt;stroke-opacity:1" id="path6861-3-9" d="M 0,0 5,-5 -12.5,0 5,5 Z" transform="matrix(-0.4,0,0,-0.4,-4,0)"/></marker><marker style="overflow:visible" id="marker6863-22" orient="auto" refX="0" refY="0"><path style="fill:#000;fill-opacity:1;fill-rule:evenodd;stroke:#000;stroke-width:1.00000003pt;stroke-opacity:1" id="path6861-8" d="M 0,0 5,-5 -12.5,0 5,5 Z" transform="matrix(-0.4,0,0,-0.4,-4,0)"/></marker><marker style="overflow:visible" id="marker6863-29" orient="auto" refX="0" refY="0"><path style="fill:#000;fill-opacity:1;fill-rule:evenodd;stroke:#000;stroke-width:1.00000003pt;stroke-opacity:1" id="path6861-31" d="M 0,0 5,-5 -12.5,0 5,5 Z" transform="matrix(-0.4,0,0,-0.4,-4,0)"/></marker><marker style="overflow:visible" id="marker6863-7" orient="auto" refX="0" refY="0"><path style="fill:#000;fill-opacity:1;fill-rule:evenodd;stroke:#000;stroke-width:1.00000003pt;stroke-opacity:1" id="path6861-84" d="M 0,0 5,-5 -12.5,0 5,5 Z" transform="matrix(-0.4,0,0,-0.4,-4,0)"/></marker><marker style="overflow:visible" id="marker6863-1-0-3" orient="auto" refX="0" refY="0"><path style="fill:#000;fill-opacity:1;fill-rule:evenodd;stroke:#000;stroke-width:1.00000003pt;stroke-opacity:1" id="path6861-27-2-6" d="M 0,0 5,-5 -12.5,0 5,5 Z" transform="matrix(-0.4,0,0,-0.4,-4,0)"/></marker><marker style="overflow:visible" id="marker6863-1-1" orient="auto" refX="0" refY="0"><path style="fill:#000;fill-opacity:1;fill-rule:evenodd;stroke:#000;stroke-width:1.00000003pt;stroke-opacity:1" id="path6861-27-0" d="M 0,0 5,-5 -12.5,0 5,5 Z" transform="matrix(-0.4,0,0,-0.4,-4,0)"/></marker><marker style="overflow:visible" id="marker6863-5-3" orient="auto" refX="0" refY="0"><path style="fill:#000;fill-opacity:1;fill-rule:evenodd;stroke:#000;stroke-width:1.00000003pt;stroke-opacity:1" id="path6861-3-6" d="M 0,0 5,-5 -12.5,0 5,5 Z" transform="matrix(-0.4,0,0,-0.4,-4,0)"/></marker><marker style="overflow:visible" id="marker6863-5-53" orient="auto" refX="0" refY="0"><path style="fill:#000;fill-opacity:1;fill-rule:evenodd;stroke:#000;stroke-width:1.00000003pt;stroke-opacity:1" id="path6861-3-5" d="M 0,0 5,-5 -12.5,0 5,5 Z" transform="matrix(-0.4,0,0,-0.4,-4,0)"/></marker><marker style="overflow:visible" id="marker6863-5-53-2" orient="auto" refX="0" refY="0"><path style="fill:#000;fill-opacity:1;fill-rule:evenodd;stroke:#000;stroke-width:1.00000003pt;stroke-opacity:1" id="path6861-3-5-9" d="M 0,0 5,-5 -12.5,0 5,5 Z" transform="matrix(-0.4,0,0,-0.4,-4,0)"/></marker><clipPath id="a"><use style="overflow:visible" id="use5020" width="100%" height="100%" x="0" y="0" overflow="visible" xlink:href="#b"/></clipPath><clipPath id="clipPath4824"><use style="overflow:visible" id="use4822" width="100%" height="100%" x="0" y="0" overflow="visible" xlink:href="#b"/></clipPath><clipPath id="clipPath4828"><use style="overflow:visible" id="use4826" width="100%" height="100%" x="0" y="0" overflow="visible" xlink:href="#b"/></clipPath><clipPath id="clipPath4832"><use style="overflow:visible" id="use4830" width="100%" height="100%" x="0" y="0" overflow="visible" xlink:href="#b"/></clipPath><rect id="rect5066" width="82.657" height="51.351" x="4.368" y="18.76"/><rect id="b" width="82.657" height="51.351" x="4.368" y="18.76"/></defs><metadata id="metadata5"/><g id="layer1" transform="translate(-19.826678,-67.445908)"><rect style="opacity:.98999999;fill:#030000;fill-opacity:.11790395;stroke:#000;stroke-width:.05299998;stroke-linecap:butt;stroke-miterlimit:4.19999981;stroke-dasharray:none;stroke-dashoffset:0;stroke-opacity:.11764706" id="rect4485" width="190.702" height="40.865" x="24.709" y="84.757"/><g id="g6851" transform="translate(12.987982,-5.0684806)"><g style="stroke-width:2" id="g4491" transform="matrix(0.13229166,0,0,0.13229167,47.931703,151.69587)"><path style="stroke-width:2" id="path4487" d="m 50,87.5 c 9.6,0 19.2,-3.7 26.5,-11 14.6,-14.6 14.6,-38.4 0,-53 -14.6,-14.6 -38.4,-14.6 -53,0 -14.6,14.6 -14.6,38.4 0,53 7.3,7.3 16.9,11 26.5,11 z M 25.6,25.6 C 32.3,18.9 41.2,15.5 50,15.5 c 8.8,0 17.7,3.4 24.4,10.1 13.5,13.5 13.5,35.3 0,48.8 -13.5,13.5 -35.3,13.5 -48.8,0 -13.4,-13.5 -13.4,-35.3 0,-48.8 z"/><path style="stroke-width:2" id="path4489" d="m 37.5,66.5 c 0.4,0 0.8,-0.2 1.1,-0.5 l 13,-14.1 c 0.3,-0.3 0.4,-0.6 0.4,-1 V 32 C 52,31.2 51.3,30.5 50.5,30.5 49.7,30.5 49,31.2 49,32 V 50.3 L 36.4,64 c -0.6,0.6 -0.5,1.6 0.1,2.1 0.2,0.3 0.6,0.4 1,0.4 z"/></g><path id="path4517" d="m 22.200226,158.25034 c 26.099323,0 26.099323,0 26.099323,0" style="fill:none;fill-rule:evenodd;stroke:#000;stroke-width:.49999997;stroke-linecap:butt;stroke-linejoin:miter;stroke-miterlimit:4;stroke-dasharray:.99999999,.5;stroke-dashoffset:0;stroke-opacity:1;marker-start:url(#Arrow1Mend)"/><path id="path4517-7" d="m 60.935782,158.56712 c 25.48961,0 25.48961,0 25.48961,0" style="fill:none;fill-rule:evenodd;stroke:#000;stroke-width:.5;stroke-linecap:butt;stroke-linejoin:miter;stroke-miterlimit:4;stroke-dasharray:1,.5;stroke-dashoffset:0;stroke-opacity:1;marker-end:url(#Arrow1Mend-3)"/></g><path style="fill:none;fill-rule:evenodd;stroke:#000;stroke-width:.5;stroke-linecap:butt;stroke-linejoin:miter;stroke-miterlimit:4;stroke-dasharray:none;stroke-opacity:1;marker-end:url(#marker6863)" id="path6853" d="M 19.957142,143.36168 C 46.883446,126.88911 46.883446,126.88911 46.883446,126.88911"/><path style="fill:none;fill-rule:evenodd;stroke:#000;stroke-width:.49999997;stroke-linecap:butt;stroke-linejoin:miter;stroke-miterlimit:4;stroke-dasharray:none;stroke-opacity:1;marker-end:url(#marker8197)" id="path6853-5" d="m 133.80132,142.56181 c 12.97766,-7.87255 12.97766,-7.87255 12.97766,-7.87255"/><path style="fill:none;fill-rule:evenodd;stroke:#000;stroke-width:.5;stroke-linecap:butt;stroke-linejoin:miter;stroke-miterlimit:4;stroke-dasharray:none;stroke-opacity:1;marker-end:url(#marker6863-22)" id="path6853-97" d="M 43.617326,84.757377 C 70.54363,68.284807 70.54363,68.284807 70.54363,68.284807"/><path style="fill:none;fill-rule:evenodd;stroke:#000;stroke-width:.5;stroke-linecap:butt;stroke-linejoin:miter;stroke-miterlimit:4;stroke-dasharray:none;stroke-opacity:1;marker-end:url(#marker6863-1-0)" id="path6853-0-1" d="m 157.4615,85.224627 c 26.9263,-16.47257 26.9263,-16.47257 26.9263,-16.47257"/><path style="fill:none;fill-rule:evenodd;stroke:#000;stroke-width:.5;stroke-linecap:butt;stroke-linejoin:miter;stroke-miterlimit:4;stroke-dasharray:none;stroke-opacity:1;marker-end:url(#marker6863-7)" id="path6853-50" d="M 46.883448,126.88911 C 191.8813,84.432686 191.8813,84.432686 191.8813,84.432686"/><path style="fill:none;fill-rule:evenodd;stroke:#000;stroke-width:.5;stroke-linecap:butt;stroke-linejoin:miter;stroke-miterlimit:4;stroke-dasharray:none;stroke-opacity:1;marker-end:url(#marker6863-1-0-3)" id="path6853-0-1-3" d="m 191.8813,84.432684 c 26.9263,-16.47257 26.9263,-16.47257 26.9263,-16.47257"/><path style="fill:none;fill-rule:evenodd;stroke:#000;stroke-width:.5;stroke-linecap:butt;stroke-linejoin:miter;stroke-miterlimit:4;stroke-dasharray:1.00000003,.50000001;stroke-dashoffset:0;stroke-opacity:1" id="path6853-50-6-54" d="M 24.840005,104.05394 C 157.48589,85.224627 157.48589,85.224627 157.48589,85.224627"/><path style="fill:none;fill-rule:evenodd;stroke:#000;stroke-width:.5;stroke-linecap:butt;stroke-linejoin:miter;stroke-miterlimit:4;stroke-dasharray:1,.5;stroke-dashoffset:0;stroke-opacity:1;marker-end:url(#marker4776)" id="path6853-50-6-54-6" d="m 25.513853,111.98779 c 11.393798,-5.89211 11.393798,-5.89211 11.393798,-5.89211"/><path style="fill:none;fill-rule:evenodd;stroke:#000;stroke-width:.49999997;stroke-linecap:butt;stroke-linejoin:miter;stroke-miterlimit:4;stroke-dasharray:1.00000005,.50000004;stroke-dashoffset:0;stroke-opacity:1" id="path6853-50-6-54-6-5" d="M 25.211624,97.053476 C 43.617325,84.989436 43.617325,84.989436 43.617325,84.989436"/><ellipse style="opacity:.98999999;fill:#fe0000;fill-opacity:.46296297;stroke:#c00;stroke-width:.05291666;stroke-linecap:butt;stroke-miterlimit:4.19999981;stroke-dasharray:none;stroke-dashoffset:0;stroke-opacity:.99537036" id="path4967" cx="122.153" cy="134.817" rx="66.844" ry="2.647"/><path style="fill:none;fill-rule:evenodd;stroke:#000;stroke-width:.5;stroke-linecap:butt;stroke-linejoin:miter;stroke-miterlimit:4;stroke-dasharray:none;stroke-opacity:1;marker-end:url(#StopM)" id="path6853-5-7" d="m 168.22112,143.03698 c 12.97766,-7.87255 12.97766,-7.87255 12.97766,-7.87255"/><path style="fill:none;fill-rule:evenodd;stroke:#000;stroke-width:.49999997;stroke-linecap:butt;stroke-linejoin:miter;stroke-miterlimit:4;stroke-dasharray:none;stroke-opacity:1;marker-end:url(#marker8360)" id="path6853-5-6" d="m 92.95986,143.26108 c 12.97766,-7.87255 12.97766,-7.87255 12.97766,-7.87255"/><path style="fill:none;fill-rule:evenodd;stroke:#000;stroke-width:.49999997;stroke-linecap:butt;stroke-linejoin:miter;stroke-miterlimit:4;stroke-dasharray:none;stroke-opacity:1;marker-end:url(#marker8529)" id="path6853-5-6-1" d="m 55.239883,143.19537 c 12.97766,-7.87255 12.97766,-7.87255 12.97766,-7.87255"/><g id="g8820" transform="matrix(0.26458333,0,0,0.26458333,110.77596,124.01161)"><polygon style="fill:#000" id="polygon8768" points="4.368 59.547 5.259 60.993 5.761 60.161"/><polygon style="fill:#000" id="polygon8770" points="6.428 62.563 7.219 61.193 8.333 61.686 7.487 63.587"/><polygon style="fill:#000" id="polygon8772" points="11.042 66.599 11.725 63.072 10.027 62.488 8.986 64.97"/><polygon style="fill:#000" id="polygon8774" points="16.267 68.961 16.542 64.478 13.468 63.786 12.573 67.386"/><polygon style="fill:#000" id="polygon8776" points="22.255 70.107 21.813 65.142 18.384 64.792 18.013 69.454"/><polygon style="fill:#000" id="polygon8778" points="24.147 70.111 28.478 69.638 27.543 64.843 23.8 65.187"/><polygon style="fill:#000" id="polygon8780" points="30.465 69.683 35.265 68.974 33.715 63.074 29.372 64.43"/><polygon style="fill:#000" id="polygon8782" points="41.498 59.798 43.756 66.842 37.094 68.561 35.336 62.514"/><polygon style="fill:#000" id="polygon8784" points="48.403 55.802 51.293 64.456 45.632 66.34 43.052 59.042"/><polygon style="fill:#000" id="polygon8786" points="86.797 31.011 86.077 32.356 86.983 32.701"/><polygon style="fill:#000" id="polygon8788" points="86.816 36.122 87.024 34.661 85.562 34.07 84.984 35.147"/><polygon style="fill:#000" id="polygon8790" points="85.862 40.694 86.483 38.139 84.143 36.828 83.162 38.336"/><polygon style="fill:#000" id="polygon8792" points="83.194 45.784 80.229 42.422 82.228 39.977 85.139 42.26"/><polygon style="fill:#000" id="polygon8794" points="79.179 50.39 76.481 46.204 78.971 43.808 82.121 47.252"/><polygon style="fill:#000" id="polygon8796" points="71.783 49.511 73.985 53.868 77.688 51.563 74.943 47.467"/><polygon style="fill:#000" id="polygon8798" points="65.835 51.933 68.23 57.539 72.448 55.131 70.088 50.315"/><polygon style="fill:#000" id="polygon8800" points="57.693 54.163 60.233 61.108 66.536 58.345 64.214 52.493"/><polygon style="fill:#000" id="polygon8802" points="49.802 55.282 52.831 63.888 58.445 61.872 56.006 54.526"/><g id="g8818"><defs id="defs8805"><rect id="rect8853" width="82.657" height="51.351" x="4.368" y="18.76"/></defs><clipPath id="a-2"><use style="overflow:visible" id="use8807" width="100%" height="100%" x="0" y="0" overflow="visible" xlink:href="#b"/></clipPath><path style="fill:#000" id="path8810" d="m 28.124,39.509 c -1.807,4.054 -3.322,-1.411 -3.322,-1.411 0,0 0.045,0.13 -0.572,-2.362 -0.901,-3.628 5.029,1.223 3.894,3.773 m 8.042,-3.168 c 0,0 -13.157,-14.464 -18.274,0.029 -4.093,11.586 18.601,6.439 18.274,-0.029" clip-path="url(#a-2)"/><path style="fill:#000" id="path8812" d="m 57.377,29.052 c -2.458,-1.307 -0.759,-8.795 0.756,-5.38 1.041,2.345 0.996,2.215 0.996,2.215 0,0 2.157,5.244 -1.752,3.165 m 5.56,-8.256 C 50.017,12.539 48.518,32.07 48.518,32.07 52.226,37.369 73.265,27.396 62.937,20.796" clip-path="url(#a-2)"/><path style="fill:#000" id="path8814" d="m 46.298,43.106 c -0.35,-0.153 -0.284,-0.931 0.146,-1.734 0.43,-0.803 1.062,-1.33 1.412,-1.176 0.35,0.154 0.283,0.931 -0.146,1.734 -0.432,0.804 -1.063,1.331 -1.412,1.176" clip-path="url(#a-2)"/><path style="fill:#000" id="path8816" d="m 44.483,43.734 c 0.181,-0.337 -0.348,-0.909 -1.18,-1.276 -0.832,-0.367 -1.652,-0.392 -1.834,-0.054 -0.18,0.337 0.349,0.909 1.181,1.276 0.831,0.367 1.652,0.391 1.833,0.054" clip-path="url(#a-2)"/></g></g><ellipse style="opacity:.98999999;fill:#fe0000;fill-opacity:.46296297;stroke:#c00;stroke-width:.05291664;stroke-linecap:butt;stroke-miterlimit:4.19999981;stroke-dasharray:none;stroke-dashoffset:0;stroke-opacity:.99537036" id="path4967-3" cx="36.954" cy="112.859" rx="3.823" ry="17.249"/></g></svg>