<svg xmlns="http://www.w3.org/2000/svg" xmlns:svg="http://www.w3.org/2000/svg" id="svg8" width="755.231" height="343.019" version="1.1" viewBox="0 0 199.821 90.757"><defs id="defs2"><marker style="overflow:visible" id="marker6863" orient="auto" refX="0" refY="0"><path style="fill:#000;fill-opacity:1;fill-rule:evenodd;stroke:#000;stroke-width:1.00000003pt;stroke-opacity:1" id="path6861" d="M 0,0 5,-5 -12.5,0 5,5 Z" transform="matrix(-0.4,0,0,-0.4,-4,0)"/></marker><marker id="Arrow1Mend" orient="auto" refX="0" refY="0" style="overflow:visible"><path id="path4528" d="M 0,0 5,-5 -12.5,0 5,5 Z" transform="matrix(-0.4,0,0,-0.4,-4,0)" style="fill:#000;fill-opacity:1;fill-rule:evenodd;stroke:#000;stroke-width:1.00000003pt;stroke-opacity:1"/></marker><marker id="Arrow1Mend-3" orient="auto" refX="0" refY="0" style="overflow:visible"><path id="path4528-6" d="M 0,0 5,-5 -12.5,0 5,5 Z" transform="matrix(-0.4,0,0,-0.4,-4,0)" style="fill:#000;fill-opacity:1;fill-rule:evenodd;stroke:#000;stroke-width:1.00000003pt;stroke-opacity:1"/></marker><marker style="overflow:visible" id="marker6863-5" orient="auto" refX="0" refY="0"><path style="fill:#000;fill-opacity:1;fill-rule:evenodd;stroke:#000;stroke-width:1.00000003pt;stroke-opacity:1" id="path6861-3" d="M 0,0 5,-5 -12.5,0 5,5 Z" transform="matrix(-0.4,0,0,-0.4,-4,0)"/></marker><marker style="overflow:visible" id="marker6863-6" orient="auto" refX="0" refY="0"><path style="fill:#000;fill-opacity:1;fill-rule:evenodd;stroke:#000;stroke-width:1.00000003pt;stroke-opacity:1" id="path6861-2" d="M 0,0 5,-5 -12.5,0 5,5 Z" transform="matrix(-0.4,0,0,-0.4,-4,0)"/></marker><marker style="overflow:visible" id="marker6863-1" orient="auto" refX="0" refY="0"><path style="fill:#000;fill-opacity:1;fill-rule:evenodd;stroke:#000;stroke-width:1.00000003pt;stroke-opacity:1" id="path6861-27" d="M 0,0 5,-5 -12.5,0 5,5 Z" transform="matrix(-0.4,0,0,-0.4,-4,0)"/></marker><marker style="overflow:visible" id="marker6863-1-0" orient="auto" refX="0" refY="0"><path style="fill:#000;fill-opacity:1;fill-rule:evenodd;stroke:#000;stroke-width:1.00000003pt;stroke-opacity:1" id="path6861-27-2" d="M 0,0 5,-5 -12.5,0 5,5 Z" transform="matrix(-0.4,0,0,-0.4,-4,0)"/></marker><marker style="overflow:visible" id="marker6863-6-3" orient="auto" refX="0" refY="0"><path style="fill:#000;fill-opacity:1;fill-rule:evenodd;stroke:#000;stroke-width:1.00000003pt;stroke-opacity:1" id="path6861-2-7" d="M 0,0 5,-5 -12.5,0 5,5 Z" transform="matrix(-0.4,0,0,-0.4,-4,0)"/></marker><marker style="overflow:visible" id="marker6863-5-5" orient="auto" refX="0" refY="0"><path style="fill:#000;fill-opacity:1;fill-rule:evenodd;stroke:#000;stroke-width:1.00000003pt;stroke-opacity:1" id="path6861-3-9" d="M 0,0 5,-5 -12.5,0 5,5 Z" transform="matrix(-0.4,0,0,-0.4,-4,0)"/></marker><marker style="overflow:visible" id="marker6863-22" orient="auto" refX="0" refY="0"><path style="fill:#000;fill-opacity:1;fill-rule:evenodd;stroke:#000;stroke-width:1.00000003pt;stroke-opacity:1" id="path6861-8" d="M 0,0 5,-5 -12.5,0 5,5 Z" transform="matrix(-0.4,0,0,-0.4,-4,0)"/></marker><marker style="overflow:visible" id="marker6863-29" orient="auto" refX="0" refY="0"><path style="fill:#000;fill-opacity:1;fill-rule:evenodd;stroke:#000;stroke-width:1.00000003pt;stroke-opacity:1" id="path6861-31" d="M 0,0 5,-5 -12.5,0 5,5 Z" transform="matrix(-0.4,0,0,-0.4,-4,0)"/></marker><marker style="overflow:visible" id="marker6863-7" orient="auto" refX="0" refY="0"><path style="fill:#000;fill-opacity:1;fill-rule:evenodd;stroke:#000;stroke-width:1.00000003pt;stroke-opacity:1" id="path6861-84" d="M 0,0 5,-5 -12.5,0 5,5 Z" transform="matrix(-0.4,0,0,-0.4,-4,0)"/></marker><marker style="overflow:visible" id="marker6863-1-0-3" orient="auto" refX="0" refY="0"><path style="fill:#000;fill-opacity:1;fill-rule:evenodd;stroke:#000;stroke-width:1.00000003pt;stroke-opacity:1" id="path6861-27-2-6" d="M 0,0 5,-5 -12.5,0 5,5 Z" transform="matrix(-0.4,0,0,-0.4,-4,0)"/></marker><marker style="overflow:visible" id="marker6863-1-1" orient="auto" refX="0" refY="0"><path style="fill:#000;fill-opacity:1;fill-rule:evenodd;stroke:#000;stroke-width:1.00000003pt;stroke-opacity:1" id="path6861-27-0" d="M 0,0 5,-5 -12.5,0 5,5 Z" transform="matrix(-0.4,0,0,-0.4,-4,0)"/></marker></defs><metadata id="metadata5"/><g id="layer1" transform="translate(-19.826678,-67.445908)"><rect style="opacity:.98999999;fill:#030000;fill-opacity:.11790395;stroke:#000;stroke-width:.05299998;stroke-linecap:butt;stroke-miterlimit:4.19999981;stroke-dasharray:none;stroke-dashoffset:0;stroke-opacity:.11764706" id="rect4485" width="190.702" height="40.865" x="24.709" y="84.757"/><g id="g6851" transform="translate(12.987982,-5.0684806)"><g style="stroke-width:2" id="g4491" transform="matrix(0.13229166,0,0,0.13229167,47.931703,151.69587)"><path style="stroke-width:2" id="path4487" d="m 50,87.5 c 9.6,0 19.2,-3.7 26.5,-11 14.6,-14.6 14.6,-38.4 0,-53 -14.6,-14.6 -38.4,-14.6 -53,0 -14.6,14.6 -14.6,38.4 0,53 7.3,7.3 16.9,11 26.5,11 z M 25.6,25.6 C 32.3,18.9 41.2,15.5 50,15.5 c 8.8,0 17.7,3.4 24.4,10.1 13.5,13.5 13.5,35.3 0,48.8 -13.5,13.5 -35.3,13.5 -48.8,0 -13.4,-13.5 -13.4,-35.3 0,-48.8 z"/><path style="stroke-width:2" id="path4489" d="m 37.5,66.5 c 0.4,0 0.8,-0.2 1.1,-0.5 l 13,-14.1 c 0.3,-0.3 0.4,-0.6 0.4,-1 V 32 C 52,31.2 51.3,30.5 50.5,30.5 49.7,30.5 49,31.2 49,32 V 50.3 L 36.4,64 c -0.6,0.6 -0.5,1.6 0.1,2.1 0.2,0.3 0.6,0.4 1,0.4 z"/></g><path id="path4517" d="m 22.200226,158.25034 c 26.099323,0 26.099323,0 26.099323,0" style="fill:none;fill-rule:evenodd;stroke:#000;stroke-width:.49999997;stroke-linecap:butt;stroke-linejoin:miter;stroke-miterlimit:4;stroke-dasharray:.99999999,.5;stroke-dashoffset:0;stroke-opacity:1;marker-start:url(#Arrow1Mend)"/><path id="path4517-7" d="m 60.935782,158.56712 c 25.48961,0 25.48961,0 25.48961,0" style="fill:none;fill-rule:evenodd;stroke:#000;stroke-width:.5;stroke-linecap:butt;stroke-linejoin:miter;stroke-miterlimit:4;stroke-dasharray:1,.5;stroke-dashoffset:0;stroke-opacity:1;marker-end:url(#Arrow1Mend-3)"/></g><path style="fill:none;fill-rule:evenodd;stroke:#000;stroke-width:.5;stroke-linecap:butt;stroke-linejoin:miter;stroke-miterlimit:4;stroke-dasharray:none;stroke-opacity:1;marker-end:url(#marker6863)" id="path6853" d="M 19.957142,143.36168 C 46.883446,126.88911 46.883446,126.88911 46.883446,126.88911"/><path style="fill:none;fill-rule:evenodd;stroke:#000;stroke-width:.5;stroke-linecap:butt;stroke-linejoin:miter;stroke-miterlimit:4;stroke-dasharray:none;stroke-opacity:1;marker-end:url(#marker6863-5)" id="path6853-5" d="M 55.239866,143.19537 C 82.166174,126.7228 82.166174,126.7228 82.166174,126.7228"/><path style="fill:none;fill-rule:evenodd;stroke:#000;stroke-width:.5;stroke-linecap:butt;stroke-linejoin:miter;stroke-miterlimit:4;stroke-dasharray:none;stroke-opacity:1;marker-end:url(#marker6863-6)" id="path6853-9" d="M 92.936696,143.19538 C 119.863,126.72281 119.863,126.72281 119.863,126.72281"/><path style="fill:none;fill-rule:evenodd;stroke:#000;stroke-width:.5;stroke-linecap:butt;stroke-linejoin:miter;stroke-miterlimit:4;stroke-dasharray:none;stroke-opacity:1;marker-end:url(#marker6863-1)" id="path6853-0" d="m 133.80132,142.56181 c 26.9263,-16.47257 26.9263,-16.47257 26.9263,-16.47257"/><path style="fill:none;fill-rule:evenodd;stroke:#000;stroke-width:.5;stroke-linecap:butt;stroke-linejoin:miter;stroke-miterlimit:4;stroke-dasharray:none;stroke-opacity:1;marker-end:url(#marker6863-22)" id="path6853-97" d="M 43.617326,84.757377 C 70.54363,68.284807 70.54363,68.284807 70.54363,68.284807"/><path style="fill:none;fill-rule:evenodd;stroke:#000;stroke-width:.5;stroke-linecap:butt;stroke-linejoin:miter;stroke-miterlimit:4;stroke-dasharray:none;stroke-opacity:1;marker-end:url(#marker6863-5-5)" id="path6853-5-3" d="m 78.90005,84.591067 c 26.92631,-16.47257 26.92631,-16.47257 26.92631,-16.47257"/><path style="fill:none;fill-rule:evenodd;stroke:#000;stroke-width:.5;stroke-linecap:butt;stroke-linejoin:miter;stroke-miterlimit:4;stroke-dasharray:none;stroke-opacity:1;marker-end:url(#marker6863-6-3)" id="path6853-9-6" d="m 116.59688,84.591077 c 26.9263,-16.47257 26.9263,-16.47257 26.9263,-16.47257"/><path style="fill:none;fill-rule:evenodd;stroke:#000;stroke-width:.5;stroke-linecap:butt;stroke-linejoin:miter;stroke-miterlimit:4;stroke-dasharray:none;stroke-opacity:1;marker-end:url(#marker6863-1-0)" id="path6853-0-1" d="m 157.4615,85.224627 c 26.9263,-16.47257 26.9263,-16.47257 26.9263,-16.47257"/><path style="fill:none;fill-rule:evenodd;stroke:#000;stroke-width:.5;stroke-linecap:butt;stroke-linejoin:miter;stroke-miterlimit:4;stroke-dasharray:none;stroke-opacity:1;marker-end:url(#marker6863-29)" id="path6853-94" d="M 82.166183,126.7228 C 116.59688,84.591076 116.59688,84.591076 116.59688,84.591076"/><path style="fill:none;fill-rule:evenodd;stroke:#000;stroke-width:.5;stroke-linecap:butt;stroke-linejoin:miter;stroke-miterlimit:4;stroke-dasharray:none;stroke-opacity:1;marker-end:url(#marker6863-7)" id="path6853-50" d="M 46.883448,126.88911 C 191.8813,84.432686 191.8813,84.432686 191.8813,84.432686"/><path style="fill:none;fill-rule:evenodd;stroke:#000;stroke-width:.5;stroke-linecap:butt;stroke-linejoin:miter;stroke-miterlimit:4;stroke-dasharray:none;stroke-opacity:1;marker-end:url(#marker6863-1-1)" id="path6853-0-6" d="m 168.22112,143.03698 c 26.9263,-16.47257 26.9263,-16.47257 26.9263,-16.47257"/><path style="fill:none;fill-rule:evenodd;stroke:#000;stroke-width:.5;stroke-linecap:butt;stroke-linejoin:miter;stroke-miterlimit:4;stroke-dasharray:none;stroke-opacity:1;marker-end:url(#marker6863-1-0-3)" id="path6853-0-1-3" d="m 191.8813,84.432684 c 26.9263,-16.47257 26.9263,-16.47257 26.9263,-16.47257"/><path style="fill:none;fill-rule:evenodd;stroke:#000;stroke-width:.5;stroke-linecap:butt;stroke-linejoin:miter;stroke-miterlimit:4;stroke-dasharray:1.00000003,.50000001;stroke-dashoffset:0;stroke-opacity:1" id="path6853-50-6" d="M 119.88616,126.78851 C 214.46967,107.9592 214.46967,107.9592 214.46967,107.9592"/><path style="fill:none;fill-rule:evenodd;stroke:#000;stroke-width:.5;stroke-linecap:butt;stroke-linejoin:miter;stroke-miterlimit:4;stroke-dasharray:1.00000003,.50000001;stroke-dashoffset:0;stroke-opacity:1" id="path6853-50-6-1" d="M 160.75302,126.01268 C 215.68823,96.565972 215.68823,96.565972 215.68823,96.565972"/><path style="fill:none;fill-rule:evenodd;stroke:#000;stroke-width:.5;stroke-linecap:butt;stroke-linejoin:miter;stroke-miterlimit:4;stroke-dasharray:1.00000003,.50000001;stroke-dashoffset:0;stroke-opacity:1" id="path6853-50-6-5" d="m 195.21056,126.58791 c 20.0139,-11.27358 20.0139,-11.27358 20.0139,-11.27358"/><path style="fill:none;fill-rule:evenodd;stroke:#000;stroke-width:.5;stroke-linecap:butt;stroke-linejoin:miter;stroke-miterlimit:4;stroke-dasharray:1.00000003,.50000001;stroke-dashoffset:0;stroke-opacity:1" id="path6853-50-6-54" d="M 24.840005,104.05394 C 157.48589,85.224627 157.48589,85.224627 157.48589,85.224627"/><path style="fill:none;fill-rule:evenodd;stroke:#000;stroke-width:.49999997;stroke-linecap:butt;stroke-linejoin:miter;stroke-miterlimit:4;stroke-dasharray:.50000001,1.00000003;stroke-dashoffset:0;stroke-opacity:1" id="path6853-50-6-7" d="M 25.507876,111.98779 C 214.61298,101.55936 214.61298,101.55936 214.61298,101.55936"/><path style="fill:none;fill-rule:evenodd;stroke:#000;stroke-width:.5;stroke-linecap:butt;stroke-linejoin:miter;stroke-miterlimit:4;stroke-dasharray:1.00000005,.50000002;stroke-dashoffset:0;stroke-opacity:1" id="path6853-50-6-54-6" d="M 25.211624,93.086899 C 78.90005,84.591067 78.90005,84.591067 78.90005,84.591067"/><path style="fill:none;fill-rule:evenodd;stroke:#000;stroke-width:.49999997;stroke-linecap:butt;stroke-linejoin:miter;stroke-miterlimit:4;stroke-dasharray:1.00000005,.50000004;stroke-dashoffset:0;stroke-opacity:1" id="path6853-50-6-54-6-5" d="M 25.211624,97.053476 C 43.617325,84.989436 43.617325,84.989436 43.617325,84.989436"/></g></svg>