<svg xmlns="http://www.w3.org/2000/svg" xmlns:svg="http://www.w3.org/2000/svg" xmlns:xlink="http://www.w3.org/1999/xlink" id="svg1492" width="474.23" height="108.852" version="1.1" viewBox="0 0 125.473 28.8"><defs id="defs1486"><marker style="overflow:visible" id="marker5426" orient="auto" refX="0" refY="0"><path style="fill:#0f0;fill-opacity:1;fill-rule:evenodd;stroke:#0f0;stroke-width:.625;stroke-linejoin:round;stroke-opacity:1" id="path5424" d="M 8.7185878,4.0337352 -2.2072895,0.01601326 8.7185884,-4.0017078 c -1.7454984,2.3720609 -1.7354408,5.6174519 -6e-7,8.035443 z" transform="scale(-0.6)"/></marker><clipPath id="a"><use id="use6691" width="100%" height="100%" x="0" y="0" overflow="visible" xlink:href="#b" style="overflow:visible"/></clipPath><clipPath id="clipPath2132"><use id="use2130" width="100%" height="100%" x="0" y="0" overflow="visible" xlink:href="#b" style="overflow:visible"/></clipPath><clipPath id="clipPath2136"><use id="use2134" width="100%" height="100%" x="0" y="0" overflow="visible" xlink:href="#b" style="overflow:visible"/></clipPath><clipPath id="clipPath2140"><use id="use2138" width="100%" height="100%" x="0" y="0" overflow="visible" xlink:href="#b" style="overflow:visible"/></clipPath><rect id="b" width="82.657" height="51.351" x="4.368" y="18.76"/><clipPath id="a-5"><use id="use6691-6" width="100%" height="100%" x="0" y="0" overflow="visible" xlink:href="#b-7" style="overflow:visible"/></clipPath><clipPath id="clipPath2132-2"><use id="use2130-9" width="100%" height="100%" x="0" y="0" overflow="visible" xlink:href="#b-7" style="overflow:visible"/></clipPath><clipPath id="clipPath2136-1"><use id="use2134-2" width="100%" height="100%" x="0" y="0" overflow="visible" xlink:href="#b-7" style="overflow:visible"/></clipPath><clipPath id="clipPath2140-7"><use id="use2138-0" width="100%" height="100%" x="0" y="0" overflow="visible" xlink:href="#b-7" style="overflow:visible"/></clipPath><rect id="b-7" width="82.657" height="51.351" x="4.368" y="18.76"/><marker id="Arrow2Mend-5" orient="auto" refX="0" refY="0" style="overflow:visible"><path id="path12009-9" d="M 8.7185878,4.0337352 -2.2072895,0.01601326 8.7185884,-4.0017078 c -1.7454984,2.3720609 -1.7354408,5.6174519 -6e-7,8.035443 z" transform="scale(-0.6)" style="fill:#0f0;fill-opacity:1;fill-rule:evenodd;stroke:#0f0;stroke-width:.625;stroke-linejoin:round;stroke-opacity:1"/></marker><marker id="Arrow2Mend-5-3" orient="auto" refX="0" refY="0" style="overflow:visible"><path id="path12009-9-6" d="M 8.7185878,4.0337352 -2.2072895,0.01601326 8.7185884,-4.0017078 c -1.7454984,2.3720609 -1.7354408,5.6174519 -6e-7,8.035443 z" transform="scale(-0.6)" style="fill:#0f0;fill-opacity:1;fill-rule:evenodd;stroke:#0f0;stroke-width:.625;stroke-linejoin:round;stroke-opacity:1"/></marker></defs><metadata id="metadata1489"/><g id="layer1" transform="translate(-53.239452,-222.41556)"><g id="g31675" transform="matrix(0.12737998,0,0,0.12737998,328.77203,163.55952)" style="fill:green"><g id="g31647" style="fill:green"><circle id="circle31649" cx="-2142.545" cy="631.232" r="2.678" style="fill:green"/></g><g id="g31651" style="fill:green"><circle id="circle31653" cx="-2128.404" cy="631.232" r="2.678" style="fill:green"/></g><g id="g31655" style="fill:green"><path id="path31657" d="m -2129.969,640.183 c -0.391,-0.613 -1.209,-0.794 -1.826,-0.409 -0.014,0.009 -1.387,0.85 -3.624,0.85 -2.241,0 -3.724,-0.844 -3.768,-0.869 -0.624,-0.375 -1.435,-0.174 -1.815,0.45 -0.38,0.626 -0.181,1.441 0.445,1.821 0.084,0.051 2.094,1.25 5.137,1.25 3.012,0 4.858,-1.141 5.058,-1.272 0.612,-0.396 0.784,-1.207 0.393,-1.821 z" style="fill:green"/></g><path id="path31659" d="m -2106.198,609.817 c -2.411,0.138 -4.596,0.749 -6.551,1.627 -4.228,-7.14 -12.006,-11.94 -20.888,-11.94 -5.887,0 -11.291,2.109 -15.497,5.61 -0.946,0.642 -6.035,4.212 -8.766,8.507 -3.296,5.182 -5.048,11.765 -5.17,12.5 -0.147,0.88 2.431,-1.824 4.84,-3.908 -0.326,1.903 -0.6,4.153 -0.756,6.825 -0.935,16.015 9.614,25.02 10,24.583 0.259,-0.292 -1.942,-5.195 -3.109,-11.905 4.038,4.472 10.065,7.155 16.805,7.155 8.346,0 16.533,-3.843 21.139,-10.642 2.893,-4.27 4.778,-9.263 4.778,-14.461 0,-0.588 -0.028,-1.169 -0.07,-1.746 0.837,0.263 1.646,0.768 2.385,1.606 2.487,2.819 3.473,5.761 3.692,9.29 -0.03,0.76 -0.271,6.297 -0.949,9.342 -0.73,3.273 -3.38,8.819 -3.255,9.436 0.061,0.301 1.344,-0.162 2.641,-0.714 -0.119,1.147 -0.235,2.324 -0.339,3.567 -1.49,17.886 8.81,26.951 9.767,25.609 0.675,-0.946 -3.384,-1.874 -2.597,-13.131 1.637,1.733 3.659,2.921 3.848,2.619 0.28,-0.447 -1.677,-6.875 -1.118,-13.196 0.294,-3.318 1.038,-7.292 1.777,-10.695 0.777,-2.692 1.384,-5.22 1.832,-7.586 0.011,-0.039 0.023,-0.086 0.023,-0.086 l -0.01,0.01 c 3.838,-20.429 -4.075,-28.869 -14.453,-28.276 z m -28.848,37.166 c -4.992,-0.3 -9.564,-2.18 -13.222,-5.147 -1.927,-1.808 -3.458,-4.019 -4.502,-6.486 -0.049,-1.48 -0.019,-2.997 0.118,-4.531 0.366,-2.189 1.011,-4.324 2.401,-7.051 3.581,-7.032 9.056,-7.36 9.056,-7.36 0,0 4.041,6.089 13.291,7.36 7.625,1.048 9.75,4.228 11.361,7.17 -1.409,8.999 -9.141,15.924 -18.503,16.045 z" style="fill:green"/><path id="path31661" d="m -2122.194,680.147 c 0,0 -2.526,-4.124 -4.498,-8.088 -2.277,1.388 -5.348,2.233 -8.786,2.233 -3.386,0 -6.416,-0.821 -8.682,-2.171 -1.986,3.848 -4.602,8.027 -4.602,8.027 0,0 0.542,1.022 2.189,2.116 -0.784,1.167 -1.348,1.963 -1.348,1.963 0,0 2.292,3.922 12.443,3.922 10.151,0 12.442,-3.922 12.442,-3.922 0,0 -0.552,-0.798 -1.324,-1.979 1.63,-1.089 2.166,-2.101 2.166,-2.101 z" style="fill:green"/><path id="path31663" d="m -2143.257,670.295 c 1.982,1.22 4.756,1.997 7.779,1.997 3.09,0 5.918,-0.812 7.907,-2.079 -0.829,-1.834 -1.417,-3.475 -1.417,-4.441 0,-2.283 1.552,-12.021 0.758,-12.98 -0.828,-1 -1.581,0 -1.581,0 0,0 -3.834,3.345 -5.668,3.345 -1.833,0 -5.7,-3.243 -5.7,-3.243 0,0 -1.009,-0.966 -1.762,-0.021 -0.597,0.75 0.976,11.593 0.976,13.586 0,0.791 -0.528,2.207 -1.292,3.836 z m 7.779,-11.826 c 0.76,0 1.376,0.616 1.376,1.376 0,0.76 -0.616,1.376 -1.376,1.376 -0.76,0 -1.376,-0.616 -1.376,-1.376 0,-0.76 0.616,-1.376 1.376,-1.376 z m 0,4.206 c 0.76,0 1.376,0.616 1.376,1.376 0,0.76 -0.616,1.376 -1.376,1.376 -0.76,0 -1.376,-0.616 -1.376,-1.376 0,-0.76 0.616,-1.376 1.376,-1.376 z" style="fill:green"/></g><g id="g7055-8-88-2" transform="matrix(0.08181195,0,0,0.08181195,91.964293,211.22923)"><g id="g7037-7-3-6"><path id="path7039-92-1-7" d="m -197,416 c -2.5,0 -5.1,0.1 -7.6,0.2 l 0.8,2.8 c 2.2,-0.1 4.4,-0.2 6.8,-0.2 20.5,0 33.6,4.6 33.6,7.7 0,3.1 -13.1,7.7 -33.6,7.7 -0.2,0 -0.4,0 -0.6,0 -0.2,-1.1 -0.4,-2.2 -0.8,-3.4 -1.6,-4.9 -4.7,-8.5 -7.6,-9.2 l -12.1,-37.4 c -0.4,-1.1 -1.6,-1.7 -2.7,-1.4 -1.1,0.4 -1.7,1.6 -1.4,2.7 L -210,423 c -1.7,2.1 -2.2,6.1 -1.1,10.5 -12.3,-1.4 -19.6,-4.6 -19.6,-6.9 0,-2.1 6,-4.9 16.3,-6.5 l -0.7,-2.8 c -10.6,1.6 -18.5,4.7 -18.5,9.3 0,0.5 0.1,1.1 0.3,1.6 0,0 0,0.1 0,0.1 l 0.5,2.4 c 3.5,15.9 6.2,28.5 35.6,28.5 29.5,0 32.3,-13.1 35.9,-29.8 l 0.3,-1.2 c 0.2,-0.5 0.3,-1 0.3,-1.5 0.2,-7.1 -18.2,-10.7 -36.3,-10.7 z m 0,40.2 c -26.1,0 -29.2,-9.7 -32.5,-24.5 6.4,3.6 19.5,5.5 32.5,5.5 13,0 26.1,-1.9 32.5,-5.5 -3.3,14.8 -6.9,24.5 -32.5,24.5 z"/><path id="path7041-0-8-5" d="m -212.1,388.2 1.3,-0.2 c 4.7,-0.6 9.7,-1 14.9,-1 21.1,0 34.1,5.3 34.1,9.1 0,1.7 -2.6,4.2 -10.1,6.3 0,0 -2.8,0.8 -6.3,1.1 l 2.3,-1.7 c 0.6,-0.5 0.7,-1.4 0.3,-2 -0.5,-0.6 -1.4,-0.8 -2,-0.3 l -8.3,6.3 9.1,5 c 0.2,0.1 0.4,0.2 0.7,0.2 0.5,0 1,-0.3 1.3,-0.7 0.4,-0.7 0.1,-1.6 -0.6,-1.9 l -3.3,-1.8 c 4.1,-0.3 7.5,-1.3 7.6,-1.3 7.9,-2.2 12.1,-5.3 12.1,-9 0,-7.8 -19,-12 -36.9,-12 -5.3,0 -10.5,0.3 -15.3,1 l -1.3,0.2 c -0.8,0.1 -1.3,0.9 -1.2,1.6 0.1,0.7 0.9,1.2 1.6,1.1 z"/><path id="path7043-2-9-6" d="m -225.4,402.9 c 0.6,0 1.2,-0.4 1.4,-1 0.2,-0.8 -0.2,-1.6 -1,-1.8 -5.6,-1.6 -7.1,-3.4 -7.1,-4.1 0,-0.7 1.4,-2.4 6.7,-4 0.8,-0.2 1.2,-1 0.9,-1.8 -0.2,-0.8 -1,-1.2 -1.8,-0.9 -5.8,1.8 -8.7,4 -8.7,6.7 0,2.8 3.1,5.1 9.2,6.9 0.1,0 0.2,0 0.4,0 z"/></g></g><g id="g7055-8-88-2-3" transform="matrix(0.08181195,0,0,0.08181195,134.94193,211.77833)"><g id="g7037-7-3-6-6"><path id="path7039-92-1-7-7" d="m -197,416 c -2.5,0 -5.1,0.1 -7.6,0.2 l 0.8,2.8 c 2.2,-0.1 4.4,-0.2 6.8,-0.2 20.5,0 33.6,4.6 33.6,7.7 0,3.1 -13.1,7.7 -33.6,7.7 -0.2,0 -0.4,0 -0.6,0 -0.2,-1.1 -0.4,-2.2 -0.8,-3.4 -1.6,-4.9 -4.7,-8.5 -7.6,-9.2 l -12.1,-37.4 c -0.4,-1.1 -1.6,-1.7 -2.7,-1.4 -1.1,0.4 -1.7,1.6 -1.4,2.7 L -210,423 c -1.7,2.1 -2.2,6.1 -1.1,10.5 -12.3,-1.4 -19.6,-4.6 -19.6,-6.9 0,-2.1 6,-4.9 16.3,-6.5 l -0.7,-2.8 c -10.6,1.6 -18.5,4.7 -18.5,9.3 0,0.5 0.1,1.1 0.3,1.6 0,0 0,0.1 0,0.1 l 0.5,2.4 c 3.5,15.9 6.2,28.5 35.6,28.5 29.5,0 32.3,-13.1 35.9,-29.8 l 0.3,-1.2 c 0.2,-0.5 0.3,-1 0.3,-1.5 0.2,-7.1 -18.2,-10.7 -36.3,-10.7 z m 0,40.2 c -26.1,0 -29.2,-9.7 -32.5,-24.5 6.4,3.6 19.5,5.5 32.5,5.5 13,0 26.1,-1.9 32.5,-5.5 -3.3,14.8 -6.9,24.5 -32.5,24.5 z"/><path id="path7041-0-8-5-5" d="m -212.1,388.2 1.3,-0.2 c 4.7,-0.6 9.7,-1 14.9,-1 21.1,0 34.1,5.3 34.1,9.1 0,1.7 -2.6,4.2 -10.1,6.3 0,0 -2.8,0.8 -6.3,1.1 l 2.3,-1.7 c 0.6,-0.5 0.7,-1.4 0.3,-2 -0.5,-0.6 -1.4,-0.8 -2,-0.3 l -8.3,6.3 9.1,5 c 0.2,0.1 0.4,0.2 0.7,0.2 0.5,0 1,-0.3 1.3,-0.7 0.4,-0.7 0.1,-1.6 -0.6,-1.9 l -3.3,-1.8 c 4.1,-0.3 7.5,-1.3 7.6,-1.3 7.9,-2.2 12.1,-5.3 12.1,-9 0,-7.8 -19,-12 -36.9,-12 -5.3,0 -10.5,0.3 -15.3,1 l -1.3,0.2 c -0.8,0.1 -1.3,0.9 -1.2,1.6 0.1,0.7 0.9,1.2 1.6,1.1 z"/><path id="path7043-2-9-6-3" d="m -225.4,402.9 c 0.6,0 1.2,-0.4 1.4,-1 0.2,-0.8 -0.2,-1.6 -1,-1.8 -5.6,-1.6 -7.1,-3.4 -7.1,-4.1 0,-0.7 1.4,-2.4 6.7,-4 0.8,-0.2 1.2,-1 0.9,-1.8 -0.2,-0.8 -1,-1.2 -1.8,-0.9 -5.8,1.8 -8.7,4 -8.7,6.7 0,2.8 3.1,5.1 9.2,6.9 0.1,0 0.2,0 0.4,0 z"/></g></g><path style="fill:#0f0;fill-rule:evenodd;stroke:#0f0;stroke-width:.26458335px;stroke-linecap:butt;stroke-linejoin:miter;stroke-opacity:1;marker-end:url(#Arrow2Mend-5)" id="path12743-4" d="m 80.506227,246.54745 c 33.368213,-0.22048 33.368213,-0.22048 33.368213,-0.22048"/><g id="g7055-8-88-2-3-4" transform="matrix(0.08181195,0,0,0.08181195,182.10646,211.51545)"><g id="g7037-7-3-6-6-7"><path id="path7039-92-1-7-7-8" d="m -197,416 c -2.5,0 -5.1,0.1 -7.6,0.2 l 0.8,2.8 c 2.2,-0.1 4.4,-0.2 6.8,-0.2 20.5,0 33.6,4.6 33.6,7.7 0,3.1 -13.1,7.7 -33.6,7.7 -0.2,0 -0.4,0 -0.6,0 -0.2,-1.1 -0.4,-2.2 -0.8,-3.4 -1.6,-4.9 -4.7,-8.5 -7.6,-9.2 l -12.1,-37.4 c -0.4,-1.1 -1.6,-1.7 -2.7,-1.4 -1.1,0.4 -1.7,1.6 -1.4,2.7 L -210,423 c -1.7,2.1 -2.2,6.1 -1.1,10.5 -12.3,-1.4 -19.6,-4.6 -19.6,-6.9 0,-2.1 6,-4.9 16.3,-6.5 l -0.7,-2.8 c -10.6,1.6 -18.5,4.7 -18.5,9.3 0,0.5 0.1,1.1 0.3,1.6 0,0 0,0.1 0,0.1 l 0.5,2.4 c 3.5,15.9 6.2,28.5 35.6,28.5 29.5,0 32.3,-13.1 35.9,-29.8 l 0.3,-1.2 c 0.2,-0.5 0.3,-1 0.3,-1.5 0.2,-7.1 -18.2,-10.7 -36.3,-10.7 z m 0,40.2 c -26.1,0 -29.2,-9.7 -32.5,-24.5 6.4,3.6 19.5,5.5 32.5,5.5 13,0 26.1,-1.9 32.5,-5.5 -3.3,14.8 -6.9,24.5 -32.5,24.5 z"/><path id="path7041-0-8-5-5-4" d="m -212.1,388.2 1.3,-0.2 c 4.7,-0.6 9.7,-1 14.9,-1 21.1,0 34.1,5.3 34.1,9.1 0,1.7 -2.6,4.2 -10.1,6.3 0,0 -2.8,0.8 -6.3,1.1 l 2.3,-1.7 c 0.6,-0.5 0.7,-1.4 0.3,-2 -0.5,-0.6 -1.4,-0.8 -2,-0.3 l -8.3,6.3 9.1,5 c 0.2,0.1 0.4,0.2 0.7,0.2 0.5,0 1,-0.3 1.3,-0.7 0.4,-0.7 0.1,-1.6 -0.6,-1.9 l -3.3,-1.8 c 4.1,-0.3 7.5,-1.3 7.6,-1.3 7.9,-2.2 12.1,-5.3 12.1,-9 0,-7.8 -19,-12 -36.9,-12 -5.3,0 -10.5,0.3 -15.3,1 l -1.3,0.2 c -0.8,0.1 -1.3,0.9 -1.2,1.6 0.1,0.7 0.9,1.2 1.6,1.1 z"/><path id="path7043-2-9-6-3-5" d="m -225.4,402.9 c 0.6,0 1.2,-0.4 1.4,-1 0.2,-0.8 -0.2,-1.6 -1,-1.8 -5.6,-1.6 -7.1,-3.4 -7.1,-4.1 0,-0.7 1.4,-2.4 6.7,-4 0.8,-0.2 1.2,-1 0.9,-1.8 -0.2,-0.8 -1,-1.2 -1.8,-0.9 -5.8,1.8 -8.7,4 -8.7,6.7 0,2.8 3.1,5.1 9.2,6.9 0.1,0 0.2,0 0.4,0 z"/></g></g><text style="font-style:normal;font-weight:400;font-size:2.82222223px;line-height:125%;font-family:sans-serif;letter-spacing:0;word-spacing:0;fill:#000;fill-opacity:1;stroke:none;stroke-width:.26458332px;stroke-linecap:butt;stroke-linejoin:miter;stroke-opacity:1" id="text4092" x="82.476" y="244.197" xml:space="preserve"><tspan id="tspan4090" x="82.476" y="244.197" style="stroke-width:.26458332px">$(\alpha,\beta,\gamma,\delta)$</tspan></text><text style="font-style:normal;font-weight:400;font-size:2.82222223px;line-height:125%;font-family:sans-serif;letter-spacing:0;word-spacing:0;fill:#000;fill-opacity:1;stroke:none;stroke-width:.26458332px;stroke-linecap:butt;stroke-linejoin:miter;stroke-opacity:1" id="text4096" x="126.368" y="244.189" xml:space="preserve"><tspan id="tspan4094" x="126.368" y="244.189" style="stroke-width:.26458332px">$(\alpha&apos;,\beta&apos;,\gamma&apos;,\delta&apos;)$</tspan></text><path style="fill:#0f0;fill-rule:evenodd;stroke:#0f0;stroke-width:.26458332px;stroke-linecap:butt;stroke-linejoin:miter;stroke-opacity:1;marker-end:url(#Arrow2Mend-5-3)" id="path12743-4-1" d="m 123.66388,246.60513 c 37.9021,-0.22048 37.9021,-0.22048 37.9021,-0.22048"/><path style="fill:#0f0;fill-rule:evenodd;stroke:#0f0;stroke-width:.26499999;stroke-linecap:butt;stroke-linejoin:miter;stroke-miterlimit:4;stroke-dasharray:.26499998,.52999996;stroke-dashoffset:0;stroke-opacity:1" id="path12743-4-1-6" d="m 63.35333,246.48159 c 8.774751,-0.22048 8.774751,-0.22048 8.774751,-0.22048"/><text style="font-style:normal;font-weight:400;font-size:2.82222223px;line-height:125%;font-family:sans-serif;letter-spacing:0;word-spacing:0;fill:#000;fill-opacity:1;stroke:none;stroke-width:.26458332px;stroke-linecap:butt;stroke-linejoin:miter;stroke-opacity:1" id="text4643" x="116.535" y="241.493" xml:space="preserve"><tspan id="tspan4641" x="116.535" y="241.493" style="stroke-width:.26458332px">$n$</tspan></text><text style="font-style:normal;font-weight:400;font-size:2.82222223px;line-height:125%;font-family:sans-serif;letter-spacing:0;word-spacing:0;fill:#000;fill-opacity:1;stroke:none;stroke-width:.26458332px;stroke-linecap:butt;stroke-linejoin:miter;stroke-opacity:1" id="text4647" x="163.78" y="241.295" xml:space="preserve"><tspan id="tspan4645" x="163.78" y="241.295" style="stroke-width:.26458332px">$n&apos;$</tspan></text><text style="font-style:normal;font-weight:400;font-size:2.82222223px;line-height:125%;font-family:sans-serif;letter-spacing:0;word-spacing:0;fill:#000;fill-opacity:1;stroke:none;stroke-width:.26458332px;stroke-linecap:butt;stroke-linejoin:miter;stroke-opacity:1" id="text4651" x="127.772" y="234.872" xml:space="preserve"><tspan id="tspan4649" x="127.772" y="234.872" style="stroke-width:.26458332px">$n&apos;$</tspan></text><ellipse style="opacity:.98999999;fill:#000;fill-opacity:.01960784;stroke:#030000;stroke-width:.10000002;stroke-linecap:butt;stroke-miterlimit:4;stroke-dasharray:.10000002,.10000002;stroke-dashoffset:0;stroke-opacity:1" id="path4653" cx="129.704" cy="233.72" rx="5.411" ry="2.816"/><ellipse style="opacity:.98999999;fill:#000;fill-opacity:.01960784;stroke:#030000;stroke-width:.10000002;stroke-linecap:butt;stroke-miterlimit:4;stroke-dasharray:.10000002,.10000002;stroke-dashoffset:0;stroke-opacity:1" id="path4653-3" cx="126.119" cy="238.762" rx="2.68" ry="1.383"/><ellipse style="opacity:.98999999;fill:#000;fill-opacity:.01960784;stroke:#030000;stroke-width:.10000002;stroke-linecap:butt;stroke-miterlimit:4;stroke-dasharray:.10000002,.10000002;stroke-dashoffset:0;stroke-opacity:1" id="path4653-3-6" cx="123.576" cy="241.697" rx="1.315" ry=".667"/><path style="fill:#0f0;fill-rule:evenodd;stroke:#0f0;stroke-width:.26499999;stroke-linecap:butt;stroke-linejoin:miter;stroke-miterlimit:4;stroke-dasharray:.26499998,.52999997;stroke-dashoffset:0;stroke-opacity:1" id="path12743-4-1-6-7" d="m 169.93474,246.54733 c 8.77475,-0.22048 8.77475,-0.22048 8.77475,-0.22048"/><ellipse style="opacity:.98999999;fill:#000;fill-opacity:.01960784;stroke:#030000;stroke-width:.1;stroke-linecap:butt;stroke-miterlimit:4;stroke-dasharray:.10000001,.10000001;stroke-dashoffset:0;stroke-opacity:1" id="path4653-5" cx="-104.252" cy="229.741" rx="11.272" ry="5.336" transform="scale(-1,1)"/><ellipse style="opacity:.98999999;fill:#000;fill-opacity:.01960784;stroke:#030000;stroke-width:.10000002;stroke-linecap:butt;stroke-miterlimit:4;stroke-dasharray:.10000002,.10000002;stroke-dashoffset:0;stroke-opacity:1" id="path4653-3-62" cx="-111.365" cy="237.499" rx="2.68" ry="1.383" transform="scale(-1,1)"/><ellipse style="opacity:.98999999;fill:#000;fill-opacity:.01960784;stroke:#030000;stroke-width:.10000002;stroke-linecap:butt;stroke-miterlimit:4;stroke-dasharray:.10000002,.10000002;stroke-dashoffset:0;stroke-opacity:1" id="path4653-3-6-9" cx="-113.909" cy="240.434" rx="1.315" ry=".667" transform="scale(-1,1)"/><ellipse style="opacity:.98999999;fill:#000;fill-opacity:.01960784;stroke:#030000;stroke-width:.10000002;stroke-linecap:butt;stroke-miterlimit:4;stroke-dasharray:.10000002,.10000002;stroke-dashoffset:0;stroke-opacity:1" id="path4653-5-1" cx="76.124" cy="228.331" rx="10.162" ry="5.866"/><ellipse style="opacity:.98999999;fill:#000;fill-opacity:.01960784;stroke:#030000;stroke-width:.10000002;stroke-linecap:butt;stroke-miterlimit:4;stroke-dasharray:.10000002,.10000002;stroke-dashoffset:0;stroke-opacity:1" id="path4653-3-62-2" cx="66.81" cy="236.619" rx="2.68" ry="1.383"/><ellipse style="opacity:.98999999;fill:#000;fill-opacity:.01960784;stroke:#030000;stroke-width:.10000002;stroke-linecap:butt;stroke-miterlimit:4;stroke-dasharray:.10000002,.10000002;stroke-dashoffset:0;stroke-opacity:1" id="path4653-3-6-9-7" cx="64.267" cy="239.553" rx="1.315" ry=".667"/><text style="font-style:normal;font-weight:400;font-size:2.82222223px;line-height:125%;font-family:sans-serif;letter-spacing:0;word-spacing:0;fill:#000;fill-opacity:1;stroke:none;stroke-width:.26458332px;stroke-linecap:butt;stroke-linejoin:miter;stroke-opacity:1" id="text4920" x="96.951" y="233.023" xml:space="preserve"><tspan id="tspan4918" x="96.951" y="233.023" style="stroke-width:.26458332px">$H(x \alpha)$</tspan></text><text style="font-style:normal;font-weight:400;font-size:2.82222223px;line-height:125%;font-family:sans-serif;letter-spacing:0;word-spacing:0;fill:#000;fill-opacity:1;stroke:none;stroke-width:.26458332px;stroke-linecap:butt;stroke-linejoin:miter;stroke-opacity:1" id="text4924" x="70.15" y="232.045" xml:space="preserve"><tspan id="tspan4922" x="70.15" y="232.045" style="stroke-width:.26458332px">$H(a X)$</tspan></text><text style="font-style:normal;font-weight:400;font-size:2.82222223px;line-height:125%;font-family:sans-serif;letter-spacing:0;word-spacing:0;fill:#000;fill-opacity:1;stroke:none;stroke-width:.26458332px;stroke-linecap:butt;stroke-linejoin:miter;stroke-opacity:1" id="text4578" x="96.325" y="228.687" xml:space="preserve"><tspan id="tspan4576" x="96.325" y="228.687" style="stroke-width:.26458332px">$X = x G$</tspan></text><text style="font-style:normal;font-weight:400;font-size:2.82222223px;line-height:125%;font-family:sans-serif;letter-spacing:0;word-spacing:0;fill:#000;fill-opacity:1;stroke:none;stroke-width:.26458332px;stroke-linecap:butt;stroke-linejoin:miter;stroke-opacity:1" id="text4582" x="68.369" y="227.042" xml:space="preserve"><tspan id="tspan4580" x="68.369" y="227.042" style="stroke-width:.26458332px">$\alpha = a G$</tspan></text></g></svg>