<svg xmlns="http://www.w3.org/2000/svg" xmlns:svg="http://www.w3.org/2000/svg" id="svg8" width="225mm" height="300mm" version="1.1" viewBox="0 0 225 300"><defs id="defs2"><marker id="marker4748" orient="auto" refX="0" refY="0" style="overflow:visible"><path id="path4746" d="M 8.7185878,4.0337352 -2.2072895,0.01601326 8.7185884,-4.0017078 c -1.7454984,2.3720609 -1.7354408,5.6174519 -6e-7,8.035443 z" transform="scale(-0.6)" style="fill:#000;fill-opacity:1;fill-rule:evenodd;stroke:#000;stroke-width:.625;stroke-linejoin:round;stroke-opacity:1"/></marker><marker id="marker7944" orient="auto" refX="0" refY="0" style="overflow:visible"><path id="path7942" d="M 8.7185878,4.0337352 -2.2072895,0.01601326 8.7185884,-4.0017078 c -1.7454984,2.3720609 -1.7354408,5.6174519 -6e-7,8.035443 z" transform="scale(-0.6)" style="fill:#000;fill-opacity:1;fill-rule:evenodd;stroke:#000;stroke-width:.625;stroke-linejoin:round;stroke-opacity:1"/></marker><marker id="marker7778" orient="auto" refX="0" refY="0" style="overflow:visible"><path id="path7776" d="M 8.7185878,4.0337352 -2.2072895,0.01601326 8.7185884,-4.0017078 c -1.7454984,2.3720609 -1.7354408,5.6174519 -6e-7,8.035443 z" transform="scale(-0.6)" style="fill:#000;fill-opacity:1;fill-rule:evenodd;stroke:#000;stroke-width:.625;stroke-linejoin:round;stroke-opacity:1"/></marker><marker style="overflow:visible" id="marker7160" orient="auto" refX="0" refY="0"><path style="fill:#000;fill-opacity:1;fill-rule:evenodd;stroke:#000;stroke-width:.625;stroke-linejoin:round;stroke-opacity:1" id="path7158" d="M 8.7185878,4.0337352 -2.2072895,0.01601326 8.7185884,-4.0017078 c -1.7454984,2.3720609 -1.7354408,5.6174519 -6e-7,8.035443 z" transform="scale(-0.6)"/></marker><marker id="marker6728" orient="auto" refX="0" refY="0" style="overflow:visible"><path id="path6726" d="M 8.7185878,4.0337352 -2.2072895,0.01601326 8.7185884,-4.0017078 c -1.7454984,2.3720609 -1.7354408,5.6174519 -6e-7,8.035443 z" transform="matrix(-0.3,0,0,-0.3,0.69,0)" style="fill:#000;fill-opacity:1;fill-rule:evenodd;stroke:#000;stroke-width:.625;stroke-linejoin:round;stroke-opacity:1"/></marker><marker id="marker6598" orient="auto" refX="0" refY="0" style="overflow:visible"><path id="path6596" d="M 0,0 5,-5 -12.5,0 5,5 Z" transform="matrix(0.2,0,0,0.2,1.2,0)" style="fill:#000;fill-opacity:1;fill-rule:evenodd;stroke:#000;stroke-width:1.00000003pt;stroke-opacity:1"/></marker><marker style="overflow:visible" id="marker5584" orient="auto" refX="0" refY="0"><path style="fill:#000;fill-opacity:1;fill-rule:evenodd;stroke:#000;stroke-width:.625;stroke-linejoin:round;stroke-opacity:1" id="path5582" d="M 8.7185878,4.0337352 -2.2072895,0.01601326 8.7185884,-4.0017078 c -1.7454984,2.3720609 -1.7354408,5.6174519 -6e-7,8.035443 z" transform="scale(-0.6)"/></marker><marker style="overflow:visible" id="marker5448" orient="auto" refX="0" refY="0"><path style="fill:#000;fill-opacity:1;fill-rule:evenodd;stroke:#000;stroke-width:.625;stroke-linejoin:round;stroke-opacity:1" id="path5446" d="M 8.7185878,4.0337352 -2.2072895,0.01601326 8.7185884,-4.0017078 c -1.7454984,2.3720609 -1.7354408,5.6174519 -6e-7,8.035443 z" transform="matrix(-1.1,0,0,-1.1,-1.1,0)"/></marker><marker id="marker5270" orient="auto" refX="0" refY="0" style="overflow:visible"><path id="path5268" d="M 8.7185878,4.0337352 -2.2072895,0.01601326 8.7185884,-4.0017078 c -1.7454984,2.3720609 -1.7354408,5.6174519 -6e-7,8.035443 z" transform="scale(-0.6)" style="fill:#000;fill-opacity:1;fill-rule:evenodd;stroke:#000;stroke-width:.625;stroke-linejoin:round;stroke-opacity:1"/></marker><marker id="marker5146" orient="auto" refX="0" refY="0" style="overflow:visible"><path id="path5144" d="M 8.7185878,4.0337352 -2.2072895,0.01601326 8.7185884,-4.0017078 c -1.7454984,2.3720609 -1.7354408,5.6174519 -6e-7,8.035443 z" transform="scale(-0.6)" style="fill:#000;fill-opacity:1;fill-rule:evenodd;stroke:#000;stroke-width:.625;stroke-linejoin:round;stroke-opacity:1"/></marker><marker style="overflow:visible" id="marker5010" orient="auto" refX="0" refY="0"><path style="fill:#000;fill-opacity:1;fill-rule:evenodd;stroke:#000;stroke-width:.625;stroke-linejoin:round;stroke-opacity:1" id="path4645" d="M 8.7185878,4.0337352 -2.2072895,0.01601326 8.7185884,-4.0017078 c -1.7454984,2.3720609 -1.7354408,5.6174519 -6e-7,8.035443 z" transform="matrix(-1.1,0,0,-1.1,-1.1,0)"/></marker><marker style="overflow:visible" id="marker4887" orient="auto" refX="0" refY="0"><path style="fill:#000;fill-opacity:1;fill-rule:evenodd;stroke:#000;stroke-width:.625;stroke-linejoin:round;stroke-opacity:1" id="path4651" d="M 8.7185878,4.0337352 -2.2072895,0.01601326 8.7185884,-4.0017078 c -1.7454984,2.3720609 -1.7354408,5.6174519 -6e-7,8.035443 z" transform="scale(-0.6)"/></marker><marker style="overflow:visible" id="Arrow1Send" orient="auto" refX="0" refY="0"><path style="fill:#000;fill-opacity:1;fill-rule:evenodd;stroke:#000;stroke-width:1.00000003pt;stroke-opacity:1" id="path4540" d="M 0,0 5,-5 -12.5,0 5,5 Z" transform="matrix(-0.2,0,0,-0.2,-1.2,0)"/></marker><marker style="overflow:visible" id="marker6317" orient="auto" refX="0" refY="0"><path style="fill:#000;fill-opacity:1;fill-rule:evenodd;stroke:#000;stroke-width:.625;stroke-linejoin:round;stroke-opacity:1" id="path6315" d="M 8.7185878,4.0337352 -2.2072895,0.01601326 8.7185884,-4.0017078 c -1.7454984,2.3720609 -1.7354408,5.6174519 -6e-7,8.035443 z" transform="matrix(-0.3,0,0,-0.3,0.69,0)"/></marker><marker style="overflow:visible" id="Arrow1Sstart" orient="auto" refX="0" refY="0"><path style="fill:#000;fill-opacity:1;fill-rule:evenodd;stroke:#000;stroke-width:1.00000003pt;stroke-opacity:1" id="path4537" d="M 0,0 5,-5 -12.5,0 5,5 Z" transform="matrix(0.2,0,0,0.2,1.2,0)"/></marker><marker style="overflow:visible" id="marker5705" orient="auto" refX="0" refY="0"><path style="fill:#000;fill-opacity:1;fill-rule:evenodd;stroke:#000;stroke-width:.625;stroke-linejoin:round;stroke-opacity:1" id="path5703" d="M 8.7185878,4.0337352 -2.2072895,0.01601326 8.7185884,-4.0017078 c -1.7454984,2.3720609 -1.7354408,5.6174519 -6e-7,8.035443 z" transform="matrix(-0.3,0,0,-0.3,0.69,0)"/></marker><marker style="overflow:visible" id="marker5635" orient="auto" refX="0" refY="0"><path style="fill:#000;fill-opacity:1;fill-rule:evenodd;stroke:#000;stroke-width:.625;stroke-linejoin:round;stroke-opacity:1" id="path5633" d="M 8.7185878,4.0337352 -2.2072895,0.01601326 8.7185884,-4.0017078 c -1.7454984,2.3720609 -1.7354408,5.6174519 -6e-7,8.035443 z" transform="scale(-0.6)"/></marker><marker style="overflow:visible" id="marker5465" orient="auto" refX="0" refY="0"><path style="fill:#000;fill-opacity:1;fill-rule:evenodd;stroke:#000;stroke-width:.625;stroke-linejoin:round;stroke-opacity:1" id="path5463" d="M 8.7185878,4.0337352 -2.2072895,0.01601326 8.7185884,-4.0017078 c -1.7454984,2.3720609 -1.7354408,5.6174519 -6e-7,8.035443 z" transform="matrix(-0.3,0,0,-0.3,0.69,0)"/></marker><marker style="overflow:visible" id="Arrow1Lstart" orient="auto" refX="0" refY="0"><path style="fill:#000;fill-opacity:1;fill-rule:evenodd;stroke:#000;stroke-width:1.00000003pt;stroke-opacity:1" id="path4525" d="M 0,0 5,-5 -12.5,0 5,5 Z" transform="matrix(0.8,0,0,0.8,10,0)"/></marker><marker style="overflow:visible" id="Arrow2Send" orient="auto" refX="0" refY="0"><path style="fill:#000;fill-opacity:1;fill-rule:evenodd;stroke:#000;stroke-width:.625;stroke-linejoin:round;stroke-opacity:1" id="path4558" d="M 8.7185878,4.0337352 -2.2072895,0.01601326 8.7185884,-4.0017078 c -1.7454984,2.3720609 -1.7354408,5.6174519 -6e-7,8.035443 z" transform="matrix(-0.3,0,0,-0.3,0.69,0)"/></marker><marker style="overflow:visible" id="Arrow2Mend" orient="auto" refX="0" refY="0"><path style="fill:#000;fill-opacity:1;fill-rule:evenodd;stroke:#000;stroke-width:.625;stroke-linejoin:round;stroke-opacity:1" id="path4552" d="M 8.7185878,4.0337352 -2.2072895,0.01601326 8.7185884,-4.0017078 c -1.7454984,2.3720609 -1.7354408,5.6174519 -6e-7,8.035443 z" transform="scale(-0.6)"/></marker><marker style="overflow:visible" id="marker4917" orient="auto" refX="0" refY="0"><path style="fill:#000;fill-opacity:1;fill-rule:evenodd;stroke:#000;stroke-width:.625;stroke-linejoin:round;stroke-opacity:1" id="path4915" d="M 8.7185878,4.0337352 -2.2072895,0.01601326 8.7185884,-4.0017078 c -1.7454984,2.3720609 -1.7354408,5.6174519 -6e-7,8.035443 z" transform="matrix(-1.1,0,0,-1.1,-1.1,0)"/></marker><marker style="overflow:visible" id="marker4865" orient="auto" refX="0" refY="0"><path style="fill:#000;fill-opacity:1;fill-rule:evenodd;stroke:#000;stroke-width:.625;stroke-linejoin:round;stroke-opacity:1" id="path4863" d="M 8.7185878,4.0337352 -2.2072895,0.01601326 8.7185884,-4.0017078 c -1.7454984,2.3720609 -1.7354408,5.6174519 -6e-7,8.035443 z" transform="matrix(-1.1,0,0,-1.1,-1.1,0)"/></marker><marker style="overflow:visible" id="Arrow2Lend" orient="auto" refX="0" refY="0"><path style="fill:#000;fill-opacity:1;fill-rule:evenodd;stroke:#000;stroke-width:.625;stroke-linejoin:round;stroke-opacity:1" id="path4546" d="M 8.7185878,4.0337352 -2.2072895,0.01601326 8.7185884,-4.0017078 c -1.7454984,2.3720609 -1.7354408,5.6174519 -6e-7,8.035443 z" transform="matrix(-1.1,0,0,-1.1,-1.1,0)"/></marker><marker style="overflow:visible" id="Arrow1Lend" orient="auto" refX="0" refY="0"><path style="fill:#000;fill-opacity:1;fill-rule:evenodd;stroke:#000;stroke-width:1.00000003pt;stroke-opacity:1" id="path4528" d="M 0,0 5,-5 -12.5,0 5,5 Z" transform="matrix(-0.8,0,0,-0.8,-10,0)"/></marker></defs><metadata id="metadata5"/><g id="layer1" transform="translate(111.125,8.2919196)"><text id="text3688" x="70.313" y="19.981" xml:space="preserve" style="font-style:normal;font-weight:400;font-size:10.58333302px;line-height:1.25;font-family:sans-serif;letter-spacing:0;word-spacing:0;fill:#000;fill-opacity:1;stroke:none;stroke-width:.26458332"><tspan style="font-size:7.76111126px;stroke-width:.26458332" id="tspan3686" x="70.313" y="19.981">receiver</tspan></text><path id="path4519" d="M -35.70292,25.382797 V 282.02863" style="fill:#000;fill-opacity:1;stroke:#000;stroke-width:2.20227146;stroke-miterlimit:4;stroke-dasharray:none;stroke-opacity:1"/><path style="fill:#000;fill-opacity:1;stroke:#000;stroke-width:2.20227146;stroke-miterlimit:4;stroke-dasharray:none;stroke-opacity:1" id="path4521" d="M 86.005414,25.382797 V 282.02863"/><path id="path4523" d="M -35.709815,33.312639 84.617034,61.627493" style="fill:#000;fill-opacity:1;stroke:#000;stroke-width:.98100001;stroke-linejoin:miter;stroke-miterlimit:1;stroke-dasharray:none;stroke-opacity:1;marker-end:url(#marker4887)"/><path id="path5405" d="M 86.451584,63.147036 -34.28327,81.110794" style="fill:#000;fill-opacity:1;stroke:#000;stroke-width:.9948349;stroke-linejoin:miter;stroke-miterlimit:1;stroke-dasharray:none;stroke-opacity:1;marker-end:url(#marker5635)"/><text id="text5625" x="9.861" y="35.936" xml:space="preserve" style="font-style:normal;font-weight:400;font-size:8.81944466px;line-height:1.25;font-family:sans-serif;letter-spacing:0;word-spacing:0;fill:#000;fill-opacity:1;stroke:none;stroke-width:.26458332"><tspan style="font-size:7.76111174px;stroke-width:.26458332" id="tspan5623" x="9.861" y="35.936">Packet 0</tspan></text><text id="text5629" x="-17.353" y="69.323" xml:space="preserve" style="font-style:normal;font-weight:400;font-size:10.58333302px;line-height:1.25;font-family:sans-serif;letter-spacing:0;word-spacing:0;fill:#000;fill-opacity:1;stroke:none;stroke-width:.26458332"><tspan style="font-size:8.81944466px;stroke-width:.26458332" id="tspan5627" x="-17.353" y="69.323">ACK 0</tspan></text><path id="path5631" d="m -35.870156,82.229269 67.05438,20.481051" style="fill:#000;fill-opacity:1;stroke:#000;stroke-width:.98100001;stroke-linejoin:miter;stroke-miterlimit:4;stroke-dasharray:none;stroke-opacity:1;marker-end:url(#marker5270)"/><text id="text5781" x="30.128" y="113.14" xml:space="preserve" style="font-style:normal;font-weight:400;font-size:7.76111126px;line-height:1.25;font-family:sans-serif;letter-spacing:0;word-spacing:0;fill:#000;fill-opacity:1;stroke:none;stroke-width:.26458332"><tspan style="font-size:7.76111126px;stroke-width:.26458332" id="tspan5779" x="30.128" y="113.14">* dropped</tspan></text><path id="path5787" d="M -36.992405,81.948707 -82.162932,81.668143" style="fill:#000;fill-opacity:1;stroke:#000;stroke-width:1;stroke-linejoin:miter;stroke-miterlimit:4;stroke-dasharray:1.00000003,1.00000003;stroke-dashoffset:0;stroke-opacity:1"/><path style="fill:#000;fill-opacity:1;stroke:#000;stroke-width:1;stroke-linejoin:miter;stroke-miterlimit:4;stroke-dasharray:1.00000003,1.00000003;stroke-dashoffset:0;stroke-opacity:1" id="path5831" d="m -35.710522,150.51753 -45.170527,-0.28057"/><path id="path5835" d="M -59.156825,84.880234 V 147.56755" style="fill:#000;fill-opacity:1;stroke:#000;stroke-width:1.18938482;stroke-linejoin:miter;stroke-miterlimit:4;stroke-dasharray:none;stroke-dashoffset:0;stroke-opacity:1;marker-start:url(#Arrow1Sstart);marker-end:url(#marker6317)"/><text id="text6411" x="-130.988" y="-72.859" transform="rotate(-90)" xml:space="preserve" style="font-style:normal;font-weight:400;font-size:7.76111126px;line-height:1.25;font-family:sans-serif;letter-spacing:0;word-spacing:0;fill:#000;fill-opacity:1;stroke:none;stroke-width:.26458332"><tspan style="stroke-width:.26458332" id="tspan6409" x="-130.988" y="-72.859">Timeout</tspan></text><text id="text6415" x="-46.469" y="19.981" xml:space="preserve" style="font-style:normal;font-weight:400;font-size:7.76111126px;line-height:1.25;font-family:sans-serif;letter-spacing:0;word-spacing:0;fill:#000;fill-opacity:1;stroke:none;stroke-width:.26458332"><tspan id="tspan6417" x="-46.469" y="19.981" style="stroke-width:.26458332">sender</tspan></text><path id="path6421" d="M -35.56134,150.20521 84.315994,187.60284" style="fill:#000;fill-opacity:1;stroke:#000;stroke-width:.98099995;stroke-linejoin:miter;stroke-miterlimit:4;stroke-dasharray:none;stroke-dashoffset:0;stroke-opacity:1;marker-end:url(#marker5146)"/><text id="text6517" x="30.075" y="165.502" xml:space="preserve" style="font-style:normal;font-weight:400;font-size:7.76111126px;line-height:1.25;font-family:sans-serif;letter-spacing:0;word-spacing:0;fill:#000;fill-opacity:1;stroke:none;stroke-width:.26458332"><tspan style="stroke-width:.26458332" id="tspan6515" x="30.075" y="165.502">Packet 1</tspan></text><text id="text5388" x="11.554" y="92.134" xml:space="preserve" style="font-style:normal;font-weight:400;font-size:7.76111126px;line-height:1.25;font-family:sans-serif;letter-spacing:0;word-spacing:0;fill:#000;fill-opacity:1;stroke:none;stroke-width:.26458332"><tspan style="stroke-width:.26458332" id="tspan5386" x="11.554" y="92.134">Packet 1</tspan></text><path id="path5396" d="m 85.901834,189.90486 -66.14583,13.64258" style="fill:#000;fill-opacity:1;stroke:#000;stroke-width:.98099995;stroke-linejoin:miter;stroke-miterlimit:1;stroke-dasharray:none;stroke-dashoffset:0;stroke-opacity:1;marker-end:url(#marker5584)"/><text id="text5714" x="18.234" y="191.945" xml:space="preserve" style="font-style:normal;font-weight:400;font-size:7.76111126px;line-height:1.25;font-family:sans-serif;letter-spacing:0;word-spacing:0;fill:#000;fill-opacity:1;stroke:none;stroke-width:.26458332"><tspan style="font-size:8.81944466px;stroke-width:.26458332" id="tspan5712" x="18.234" y="191.945">ACK 1</tspan></text><text id="text5718" x="13.701" y="214.268" xml:space="preserve" style="font-style:normal;font-weight:400;font-size:7.76111126px;line-height:1.25;font-family:sans-serif;letter-spacing:0;word-spacing:0;fill:#000;fill-opacity:1;stroke:none;stroke-width:.26458332"><tspan style="stroke-width:.26458332" id="tspan5716" x="13.701" y="214.268">* dropped</tspan></text><path id="path6588" d="m -35.710522,218.02864 -45.170527,-0.28057" style="fill:#000;fill-opacity:1;stroke:#000;stroke-width:1;stroke-linejoin:miter;stroke-miterlimit:4;stroke-dasharray:1.00000003,1.00000003;stroke-dashoffset:0;stroke-opacity:1"/><path style="fill:#000;fill-opacity:1;stroke:#000;stroke-width:1.18938482;stroke-linejoin:miter;stroke-miterlimit:4;stroke-dasharray:none;stroke-dashoffset:0;stroke-opacity:1;marker-start:url(#marker6598);marker-end:url(#marker6728)" id="path6590" d="m -59.303469,153.18334 v 62.68731"/><text style="font-style:normal;font-weight:400;font-size:7.76111126px;line-height:1.25;font-family:sans-serif;letter-spacing:0;word-spacing:0;fill:#000;fill-opacity:1;stroke:none;stroke-width:.26458332" id="text6594" x="-199.985" y="-72.859" transform="rotate(-90)" xml:space="preserve"><tspan id="tspan6592" x="-199.985" y="-72.859" style="stroke-width:.26458332">Timeout</tspan></text><path id="path7150" d="M -35.16056,218.6043 83.351154,260.27395" style="fill:#000;fill-opacity:1;stroke:#000;stroke-width:.92139274;stroke-linejoin:miter;stroke-miterlimit:1;stroke-dasharray:none;stroke-dashoffset:0;stroke-opacity:1;marker-end:url(#marker7160)"/><text style="font-style:normal;font-weight:400;font-size:7.76111126px;line-height:1.25;font-family:sans-serif;letter-spacing:0;word-spacing:0;fill:#000;fill-opacity:1;stroke:none;stroke-width:.26458332" id="text7752" x="27.429" y="235.009" xml:space="preserve"><tspan id="tspan7750" x="27.429" y="235.009" style="stroke-width:.26458332">Packet 1</tspan></text><path id="path7768" d="M -89.450906,4.9602699 V 63.251286" style="fill:#000;fill-opacity:1;stroke:#000;stroke-width:.98099995;stroke-linejoin:miter;stroke-miterlimit:1;stroke-dasharray:none;stroke-dashoffset:0;stroke-opacity:1;marker-start:url(#marker7778);marker-end:url(#marker7944)"/><text id="text8110" x="-59.839" y="-97.25" transform="rotate(-90)" xml:space="preserve" style="font-style:normal;font-weight:400;font-size:7.76111126px;line-height:1.25;font-family:sans-serif;letter-spacing:0;word-spacing:0;fill:#000;fill-opacity:1;stroke:none;stroke-width:.26458332"><tspan style="stroke-width:.26458332" id="tspan8108" x="-59.839" y="-97.25">Time</tspan></text><path style="fill:#000;fill-opacity:1;stroke:#000;stroke-width:.986;stroke-linejoin:miter;stroke-miterlimit:1;stroke-dasharray:none;stroke-dashoffset:0;stroke-opacity:1;marker-end:url(#marker4748)" id="path4740" d="M 84.554404,262.70255 -34.246192,280.1044"/><text style="font-style:normal;font-weight:400;font-size:7.76111126px;line-height:1.25;font-family:sans-serif;letter-spacing:0;word-spacing:0;fill:#000;fill-opacity:1;stroke:none;stroke-width:.26458332" id="text5382" x="-12.772" y="265.946" xml:space="preserve"><tspan id="tspan5380" x="-12.772" y="265.946" style="font-size:8.81944466px;stroke-width:.26458332">ACK 1</tspan></text></g></svg>